<svg class="rich-terminal" viewBox="0 0 1190 733.1999999999999" xmlns="http://www.w3.org/2000/svg">
    <!-- Generated with Rich https://www.textualize.io -->
    <style>

    @font-face {
        font-family: "Fira Code";
        src: local("FiraCode-Regular"),
                url("https://cdnjs.cloudflare.com/ajax/libs/firacode/6.2.0/woff2/FiraCode-Regular.woff2") format("woff2"),
                url("https://cdnjs.cloudflare.com/ajax/libs/firacode/6.2.0/woff/FiraCode-Regular.woff") format("woff");
        font-style: normal;
        font-weight: 400;
    }
    @font-face {
        font-family: "Fira Code";
        src: local("FiraCode-Bold"),
                url("https://cdnjs.cloudflare.com/ajax/libs/firacode/6.2.0/woff2/FiraCode-Bold.woff2") format("woff2"),
                url("https://cdnjs.cloudflare.com/ajax/libs/firacode/6.2.0/woff/FiraCode-Bold.woff") format("woff");
        font-style: bold;
        font-weight: 700;
    }

    .terminal-2630315761-matrix {
        font-family: Fira Code, monospace;
        font-size: 20px;
        line-height: 24.4px;
        font-variant-east-asian: full-width;
    }

    .terminal-2630315761-title {
        font-size: 18px;
        font-weight: bold;
        font-family: arial;
    }

    .terminal-2630315761-r1 { fill: #c5c8c6 }
.terminal-2630315761-r2 { fill: #e0e0e0 }
.terminal-2630315761-r3 { fill: #a0a3a6 }
.terminal-2630315761-r4 { fill: #a0a0a0 }
.terminal-2630315761-r5 { fill: #0178d4 }
.terminal-2630315761-r6 { fill: #e0e0e0;font-weight: bold }
.terminal-2630315761-r7 { fill: #ff00ff }
.terminal-2630315761-r8 { fill: #999999 }
.terminal-2630315761-r9 { fill: #008000 }
.terminal-2630315761-r10 { fill: #999999;text-decoration: underline; }
.terminal-2630315761-r11 { fill: #ffa62b;font-weight: bold }
.terminal-2630315761-r12 { fill: #495259 }
    </style>

    <defs>
    <clipPath id="terminal-2630315761-clip-terminal">
      <rect x="0" y="0" width="1170.1999999999998" height="682.1999999999999" />
    </clipPath>
    <clipPath id="terminal-2630315761-line-0">
    <rect x="0" y="1.5" width="1171.2" height="24.65"/>
            </clipPath>
<clipPath id="terminal-2630315761-line-1">
    <rect x="0" y="25.9" width="1171.2" height="24.65"/>
            </clipPath>
<clipPath id="terminal-2630315761-line-2">
    <rect x="0" y="50.3" width="1171.2" height="24.65"/>
            </clipPath>
<clipPath id="terminal-2630315761-line-3">
    <rect x="0" y="74.7" width="1171.2" height="24.65"/>
            </clipPath>
<clipPath id="terminal-2630315761-line-4">
    <rect x="0" y="99.1" width="1171.2" height="24.65"/>
            </clipPath>
<clipPath id="terminal-2630315761-line-5">
    <rect x="0" y="123.5" width="1171.2" height="24.65"/>
            </clipPath>
<clipPath id="terminal-2630315761-line-6">
    <rect x="0" y="147.9" width="1171.2" height="24.65"/>
            </clipPath>
<clipPath id="terminal-2630315761-line-7">
    <rect x="0" y="172.3" width="1171.2" height="24.65"/>
            </clipPath>
<clipPath id="terminal-2630315761-line-8">
    <rect x="0" y="196.7" width="1171.2" height="24.65"/>
            </clipPath>
<clipPath id="terminal-2630315761-line-9">
    <rect x="0" y="221.1" width="1171.2" height="24.65"/>
            </clipPath>
<clipPath id="terminal-2630315761-line-10">
    <rect x="0" y="245.5" width="1171.2" height="24.65"/>
            </clipPath>
<clipPath id="terminal-2630315761-line-11">
    <rect x="0" y="269.9" width="1171.2" height="24.65"/>
            </clipPath>
<clipPath id="terminal-2630315761-line-12">
    <rect x="0" y="294.3" width="1171.2" height="24.65"/>
            </clipPath>
<clipPath id="terminal-2630315761-line-13">
    <rect x="0" y="318.7" width="1171.2" height="24.65"/>
            </clipPath>
<clipPath id="terminal-2630315761-line-14">
    <rect x="0" y="343.1" width="1171.2" height="24.65"/>
            </clipPath>
<clipPath id="terminal-2630315761-line-15">
    <rect x="0" y="367.5" width="1171.2" height="24.65"/>
            </clipPath>
<clipPath id="terminal-2630315761-line-16">
    <rect x="0" y="391.9" width="1171.2" height="24.65"/>
            </clipPath>
<clipPath id="terminal-2630315761-line-17">
    <rect x="0" y="416.3" width="1171.2" height="24.65"/>
            </clipPath>
<clipPath id="terminal-2630315761-line-18">
    <rect x="0" y="440.7" width="1171.2" height="24.65"/>
            </clipPath>
<clipPath id="terminal-2630315761-line-19">
    <rect x="0" y="465.1" width="1171.2" height="24.65"/>
            </clipPath>
<clipPath id="terminal-2630315761-line-20">
    <rect x="0" y="489.5" width="1171.2" height="24.65"/>
            </clipPath>
<clipPath id="terminal-2630315761-line-21">
    <rect x="0" y="513.9" width="1171.2" height="24.65"/>
            </clipPath>
<clipPath id="terminal-2630315761-line-22">
    <rect x="0" y="538.3" width="1171.2" height="24.65"/>
            </clipPath>
<clipPath id="terminal-2630315761-line-23">
    <rect x="0" y="562.7" width="1171.2" height="24.65"/>
            </clipPath>
<clipPath id="terminal-2630315761-line-24">
    <rect x="0" y="587.1" width="1171.2" height="24.65"/>
            </clipPath>
<clipPath id="terminal-2630315761-line-25">
    <rect x="0" y="611.5" width="1171.2" height="24.65"/>
            </clipPath>
<clipPath id="terminal-2630315761-line-26">
    <rect x="0" y="635.9" width="1171.2" height="24.65"/>
            </clipPath>
    </defs>

    <rect fill="#292929" stroke="rgba(255,255,255,0.35)" stroke-width="1" x="1" y="1" width="1188" height="731.2" rx="8"/><text class="terminal-2630315761-title" fill="#c5c8c6" text-anchor="middle" x="594" y="27">ResidualSelf</text>
            <g transform="translate(26,22)">
            <circle cx="0" cy="0" r="7" fill="#ff5f57"/>
            <circle cx="22" cy="0" r="7" fill="#febc2e"/>
            <circle cx="44" cy="0" r="7" fill="#28c840"/>
            </g>
        
    <g transform="translate(9, 41)" clip-path="url(#terminal-2630315761-clip-terminal)">
    <rect fill="#242f38" x="0" y="1.5" width="12.2" height="24.65" shape-rendering="crispEdges"/><rect fill="#242f38" x="12.2" y="1.5" width="12.2" height="24.65" shape-rendering="crispEdges"/><rect fill="#242f38" x="24.4" y="1.5" width="61" height="24.65" shape-rendering="crispEdges"/><rect fill="#242f38" x="85.4" y="1.5" width="12.2" height="24.65" shape-rendering="crispEdges"/><rect fill="#242f38" x="97.6" y="1.5" width="353.8" height="24.65" shape-rendering="crispEdges"/><rect fill="#242f38" x="451.4" y="1.5" width="146.4" height="24.65" shape-rendering="crispEdges"/><rect fill="#242f38" x="597.8" y="1.5" width="36.6" height="24.65" shape-rendering="crispEdges"/><rect fill="#242f38" x="634.4" y="1.5" width="48.8" height="24.65" shape-rendering="crispEdges"/><rect fill="#242f38" x="683.2" y="1.5" width="366" height="24.65" shape-rendering="crispEdges"/><rect fill="#242f38" x="1049.2" y="1.5" width="12.2" height="24.65" shape-rendering="crispEdges"/><rect fill="#242f38" x="1061.4" y="1.5" width="0" height="24.65" shape-rendering="crispEdges"/><rect fill="#242f38" x="1061.4" y="1.5" width="97.6" height="24.65" shape-rendering="crispEdges"/><rect fill="#242f38" x="1159" y="1.5" width="12.2" height="24.65" shape-rendering="crispEdges"/><rect fill="#121212" x="0" y="25.9" width="12.2" height="24.65" shape-rendering="crispEdges"/><rect fill="#121212" x="12.2" y="25.9" width="207.4" height="24.65" shape-rendering="crispEdges"/><rect fill="#121212" x="219.6" y="25.9" width="939.4" height="24.65" shape-rendering="crispEdges"/><rect fill="#121212" x="1159" y="25.9" width="12.2" height="24.65" shape-rendering="crispEdges"/><rect fill="#121212" x="0" y="50.3" width="1171.2" height="24.65" shape-rendering="crispEdges"/><rect fill="#121212" x="0" y="74.7" width="24.4" height="24.65" shape-rendering="crispEdges"/><rect fill="#121212" x="24.4" y="74.7" width="12.2" height="24.65" shape-rendering="crispEdges"/><rect fill="#121212" x="36.6" y="74.7" width="1098" height="24.65" shape-rendering="crispEdges"/><rect fill="#121212" x="1134.6" y="74.7" width="12.2" height="24.65" shape-rendering="crispEdges"/><rect fill="#121212" x="1146.8" y="74.7" width="24.4" height="24.65" shape-rendering="crispEdges"/><rect fill="#121212" x="0" y="99.1" width="24.4" height="24.65" shape-rendering="crispEdges"/><rect fill="#121212" x="24.4" y="99.1" width="12.2" height="24.65" shape-rendering="crispEdges"/><rect fill="#121212" x="36.6" y="99.1" width="1098" height="24.65" shape-rendering="crispEdges"/><rect fill="#121212" x="1134.6" y="99.1" width="12.2" height="24.65" shape-rendering="crispEdges"/><rect fill="#121212" x="1146.8" y="99.1" width="24.4" height="24.65" shape-rendering="crispEdges"/><rect fill="#121212" x="0" y="123.5" width="24.4" height="24.65" shape-rendering="crispEdges"/><rect fill="#121212" x="24.4" y="123.5" width="12.2" height="24.65" shape-rendering="crispEdges"/><rect fill="#121212" x="36.6" y="123.5" width="24.4" height="24.65" shape-rendering="crispEdges"/><rect fill="#121212" x="61" y="123.5" width="536.8" height="24.65" shape-rendering="crispEdges"/><rect fill="#121212" x="597.8" y="123.5" width="512.4" height="24.65" shape-rendering="crispEdges"/><rect fill="#121212" x="1110.2" y="123.5" width="24.4" height="24.65" shape-rendering="crispEdges"/><rect fill="#121212" x="1134.6" y="123.5" width="12.2" height="24.65" shape-rendering="crispEdges"/><rect fill="#121212" x="1146.8" y="123.5" width="24.4" height="24.65" shape-rendering="crispEdges"/><rect fill="#121212" x="0" y="147.9" width="24.4" height="24.65" shape-rendering="crispEdges"/><rect fill="#121212" x="24.4" y="147.9" width="12.2" height="24.65" shape-rendering="crispEdges"/><rect fill="#121212" x="36.6" y="147.9" width="24.4" height="24.65" shape-rendering="crispEdges"/><rect fill="#121212" x="61" y="147.9" width="170.8" height="24.65" shape-rendering="crispEdges"/><rect fill="#121212" x="231.8" y="147.9" width="12.2" height="24.65" shape-rendering="crispEdges"/><rect fill="#121212" x="244" y="147.9" width="244" height="24.65" shape-rendering="crispEdges"/><rect fill="#121212" x="488" y="147.9" width="622.2" height="24.65" shape-rendering="crispEdges"/><rect fill="#121212" x="1110.2" y="147.9" width="24.4" height="24.65" shape-rendering="crispEdges"/><rect fill="#121212" x="1134.6" y="147.9" width="12.2" height="24.65" shape-rendering="crispEdges"/><rect fill="#121212" x="1146.8" y="147.9" width="24.4" height="24.65" shape-rendering="crispEdges"/><rect fill="#121212" x="0" y="172.3" width="24.4" height="24.65" shape-rendering="crispEdges"/><rect fill="#121212" x="24.4" y="172.3" width="12.2" height="24.65" shape-rendering="crispEdges"/><rect fill="#121212" x="36.6" y="172.3" width="24.4" height="24.65" shape-rendering="crispEdges"/><rect fill="#121212" x="61" y="172.3" width="0" height="24.65" shape-rendering="crispEdges"/><rect fill="#121212" x="61" y="172.3" width="1049.2" height="24.65" shape-rendering="crispEdges"/><rect fill="#121212" x="1110.2" y="172.3" width="24.4" height="24.65" shape-rendering="crispEdges"/><rect fill="#121212" x="1134.6" y="172.3" width="12.2" height="24.65" shape-rendering="crispEdges"/><rect fill="#121212" x="1146.8" y="172.3" width="24.4" height="24.65" shape-rendering="crispEdges"/><rect fill="#121212" x="0" y="196.7" width="24.4" height="24.65" shape-rendering="crispEdges"/><rect fill="#121212" x="24.4" y="196.7" width="12.2" height="24.65" shape-rendering="crispEdges"/><rect fill="#121212" x="36.6" y="196.7" width="24.4" height="24.65" shape-rendering="crispEdges"/><rect fill="#121212" x="61" y="196.7" width="85.4" height="24.65" shape-rendering="crispEdges"/><rect fill="#121212" x="146.4" y="196.7" width="48.8" height="24.65" shape-rendering="crispEdges"/><rect fill="#121212" x="195.2" y="196.7" width="915" height="24.65" shape-rendering="crispEdges"/><rect fill="#121212" x="1110.2" y="196.7" width="24.4" height="24.65" shape-rendering="crispEdges"/><rect fill="#121212" x="1134.6" y="196.7" width="12.2" height="24.65" shape-rendering="crispEdges"/><rect fill="#121212" x="1146.8" y="196.7" width="24.4" height="24.65" shape-rendering="crispEdges"/><rect fill="#121212" x="0" y="221.1" width="24.4" height="24.65" shape-rendering="crispEdges"/><rect fill="#121212" x="24.4" y="221.1" width="12.2" height="24.65" shape-rendering="crispEdges"/><rect fill="#121212" x="36.6" y="221.1" width="24.4" height="24.65" shape-rendering="crispEdges"/><rect fill="#121212" x="61" y="221.1" width="97.6" height="24.65" shape-rendering="crispEdges"/><rect fill="#121212" x="158.6" y="221.1" width="48.8" height="24.65" shape-rendering="crispEdges"/><rect fill="#121212" x="207.4" y="221.1" width="902.8" height="24.65" shape-rendering="crispEdges"/><rect fill="#121212" x="1110.2" y="221.1" width="24.4" height="24.65" shape-rendering="crispEdges"/><rect fill="#121212" x="1134.6" y="221.1" width="12.2" height="24.65" shape-rendering="crispEdges"/><rect fill="#121212" x="1146.8" y="221.1" width="24.4" height="24.65" shape-rendering="crispEdges"/><rect fill="#121212" x="0" y="245.5" width="24.4" height="24.65" shape-rendering="crispEdges"/><rect fill="#121212" x="24.4" y="245.5" width="12.2" height="24.65" shape-rendering="crispEdges"/><rect fill="#121212" x="36.6" y="245.5" width="24.4" height="24.65" shape-rendering="crispEdges"/><rect fill="#121212" x="61" y="245.5" width="85.4" height="24.65" shape-rendering="crispEdges"/><rect fill="#121212" x="146.4" y="245.5" width="61" height="24.65" shape-rendering="crispEdges"/><rect fill="#121212" x="207.4" y="245.5" width="902.8" height="24.65" shape-rendering="crispEdges"/><rect fill="#121212" x="1110.2" y="245.5" width="24.4" height="24.65" shape-rendering="crispEdges"/><rect fill="#121212" x="1134.6" y="245.5" width="12.2" height="24.65" shape-rendering="crispEdges"/><rect fill="#121212" x="1146.8" y="245.5" width="24.4" height="24.65" shape-rendering="crispEdges"/><rect fill="#121212" x="0" y="269.9" width="24.4" height="24.65" shape-rendering="crispEdges"/><rect fill="#121212" x="24.4" y="269.9" width="12.2" height="24.65" shape-rendering="crispEdges"/><rect fill="#121212" x="36.6" y="269.9" width="24.4" height="24.65" shape-rendering="crispEdges"/><rect fill="#121212" x="61" y="269.9" width="36.6" height="24.65" shape-rendering="crispEdges"/><rect fill="#121212" x="97.6" y="269.9" width="12.2" height="24.65" shape-rendering="crispEdges"/><rect fill="#121212" x="109.8" y="269.9" width="85.4" height="24.65" shape-rendering="crispEdges"/><rect fill="#121212" x="195.2" y="269.9" width="915" height="24.65" shape-rendering="crispEdges"/><rect fill="#121212" x="1110.2" y="269.9" width="24.4" height="24.65" shape-rendering="crispEdges"/><rect fill="#121212" x="1134.6" y="269.9" width="12.2" height="24.65" shape-rendering="crispEdges"/><rect fill="#121212" x="1146.8" y="269.9" width="24.4" height="24.65" shape-rendering="crispEdges"/><rect fill="#121212" x="0" y="294.3" width="24.4" height="24.65" shape-rendering="crispEdges"/><rect fill="#121212" x="24.4" y="294.3" width="12.2" height="24.65" shape-rendering="crispEdges"/><rect fill="#121212" x="36.6" y="294.3" width="24.4" height="24.65" shape-rendering="crispEdges"/><rect fill="#121212" x="61" y="294.3" width="85.4" height="24.65" shape-rendering="crispEdges"/><rect fill="#121212" x="146.4" y="294.3" width="207.4" height="24.65" shape-rendering="crispEdges"/><rect fill="#121212" x="353.8" y="294.3" width="756.4" height="24.65" shape-rendering="crispEdges"/><rect fill="#121212" x="1110.2" y="294.3" width="24.4" height="24.65" shape-rendering="crispEdges"/><rect fill="#121212" x="1134.6" y="294.3" width="12.2" height="24.65" shape-rendering="crispEdges"/><rect fill="#121212" x="1146.8" y="294.3" width="24.4" height="24.65" shape-rendering="crispEdges"/><rect fill="#121212" x="0" y="318.7" width="24.4" height="24.65" shape-rendering="crispEdges"/><rect fill="#121212" x="24.4" y="318.7" width="12.2" height="24.65" shape-rendering="crispEdges"/><rect fill="#121212" x="36.6" y="318.7" width="24.4" height="24.65" shape-rendering="crispEdges"/><rect fill="#121212" x="61" y="318.7" width="0" height="24.65" shape-rendering="crispEdges"/><rect fill="#121212" x="61" y="318.7" width="1049.2" height="24.65" shape-rendering="crispEdges"/><rect fill="#121212" x="1110.2" y="318.7" width="24.4" height="24.65" shape-rendering="crispEdges"/><rect fill="#121212" x="1134.6" y="318.7" width="12.2" height="24.65" shape-rendering="crispEdges"/><rect fill="#121212" x="1146.8" y="318.7" width="24.4" height="24.65" shape-rendering="crispEdges"/><rect fill="#121212" x="0" y="343.1" width="24.4" height="24.65" shape-rendering="crispEdges"/><rect fill="#121212" x="24.4" y="343.1" width="12.2" height="24.65" shape-rendering="crispEdges"/><rect fill="#121212" x="36.6" y="343.1" width="24.4" height="24.65" shape-rendering="crispEdges"/><rect fill="#121212" x="61" y="343.1" width="451.4" height="24.65" shape-rendering="crispEdges"/><rect fill="#121212" x="512.4" y="343.1" width="597.8" height="24.65" shape-rendering="crispEdges"/><rect fill="#121212" x="1110.2" y="343.1" width="24.4" height="24.65" shape-rendering="crispEdges"/><rect fill="#121212" x="1134.6" y="343.1" width="12.2" height="24.65" shape-rendering="crispEdges"/><rect fill="#121212" x="1146.8" y="343.1" width="24.4" height="24.65" shape-rendering="crispEdges"/><rect fill="#121212" x="0" y="367.5" width="24.4" height="24.65" shape-rendering="crispEdges"/><rect fill="#121212" x="24.4" y="367.5" width="12.2" height="24.65" shape-rendering="crispEdges"/><rect fill="#121212" x="36.6" y="367.5" width="24.4" height="24.65" shape-rendering="crispEdges"/><rect fill="#121212" x="61" y="367.5" width="1049.2" height="24.65" shape-rendering="crispEdges"/><rect fill="#121212" x="1110.2" y="367.5" width="24.4" height="24.65" shape-rendering="crispEdges"/><rect fill="#121212" x="1134.6" y="367.5" width="12.2" height="24.65" shape-rendering="crispEdges"/><rect fill="#121212" x="1146.8" y="367.5" width="24.4" height="24.65" shape-rendering="crispEdges"/><rect fill="#121212" x="0" y="391.9" width="24.4" height="24.65" shape-rendering="crispEdges"/><rect fill="#121212" x="24.4" y="391.9" width="12.2" height="24.65" shape-rendering="crispEdges"/><rect fill="#121212" x="36.6" y="391.9" width="24.4" height="24.65" shape-rendering="crispEdges"/><rect fill="#121212" x="61" y="391.9" width="1049.2" height="24.65" shape-rendering="crispEdges"/><rect fill="#121212" x="1110.2" y="391.9" width="24.4" height="24.65" shape-rendering="crispEdges"/><rect fill="#121212" x="1134.6" y="391.9" width="12.2" height="24.65" shape-rendering="crispEdges"/><rect fill="#121212" x="1146.8" y="391.9" width="24.4" height="24.65" shape-rendering="crispEdges"/><rect fill="#121212" x="0" y="416.3" width="24.4" height="24.65" shape-rendering="crispEdges"/><rect fill="#121212" x="24.4" y="416.3" width="12.2" height="24.65" shape-rendering="crispEdges"/><rect fill="#121212" x="36.6" y="416.3" width="24.4" height="24.65" shape-rendering="crispEdges"/><rect fill="#121212" x="61" y="416.3" width="1049.2" height="24.65" shape-rendering="crispEdges"/><rect fill="#121212" x="1110.2" y="416.3" width="24.4" height="24.65" shape-rendering="crispEdges"/><rect fill="#121212" x="1134.6" y="416.3" width="12.2" height="24.65" shape-rendering="crispEdges"/><rect fill="#121212" x="1146.8" y="416.3" width="24.4" height="24.65" shape-rendering="crispEdges"/><rect fill="#121212" x="0" y="440.7" width="24.4" height="24.65" shape-rendering="crispEdges"/><rect fill="#121212" x="24.4" y="440.7" width="12.2" height="24.65" shape-rendering="crispEdges"/><rect fill="#121212" x="36.6" y="440.7" width="24.4" height="24.65" shape-rendering="crispEdges"/><rect fill="#121212" x="61" y="440.7" width="1049.2" height="24.65" shape-rendering="crispEdges"/><rect fill="#121212" x="1110.2" y="440.7" width="24.4" height="24.65" shape-rendering="crispEdges"/><rect fill="#121212" x="1134.6" y="440.7" width="12.2" height="24.65" shape-rendering="crispEdges"/><rect fill="#121212" x="1146.8" y="440.7" width="24.4" height="24.65" shape-rendering="crispEdges"/><rect fill="#121212" x="0" y="465.1" width="24.4" height="24.65" shape-rendering="crispEdges"/><rect fill="#121212" x="24.4" y="465.1" width="12.2" height="24.65" shape-rendering="crispEdges"/><rect fill="#121212" x="36.6" y="465.1" width="24.4" height="24.65" shape-rendering="crispEdges"/><rect fill="#121212" x="61" y="465.1" width="1049.2" height="24.65" shape-rendering="crispEdges"/><rect fill="#121212" x="1110.2" y="465.1" width="24.4" height="24.65" shape-rendering="crispEdges"/><rect fill="#121212" x="1134.6" y="465.1" width="12.2" height="24.65" shape-rendering="crispEdges"/><rect fill="#121212" x="1146.8" y="465.1" width="24.4" height="24.65" shape-rendering="crispEdges"/><rect fill="#121212" x="0" y="489.5" width="24.4" height="24.65" shape-rendering="crispEdges"/><rect fill="#121212" x="24.4" y="489.5" width="12.2" height="24.65" shape-rendering="crispEdges"/><rect fill="#121212" x="36.6" y="489.5" width="24.4" height="24.65" shape-rendering="crispEdges"/><rect fill="#121212" x="61" y="489.5" width="1049.2" height="24.65" shape-rendering="crispEdges"/><rect fill="#121212" x="1110.2" y="489.5" width="24.4" height="24.65" shape-rendering="crispEdges"/><rect fill="#121212" x="1134.6" y="489.5" width="12.2" height="24.65" shape-rendering="crispEdges"/><rect fill="#121212" x="1146.8" y="489.5" width="24.4" height="24.65" shape-rendering="crispEdges"/><rect fill="#121212" x="0" y="513.9" width="24.4" height="24.65" shape-rendering="crispEdges"/><rect fill="#121212" x="24.4" y="513.9" width="12.2" height="24.65" shape-rendering="crispEdges"/><rect fill="#121212" x="36.6" y="513.9" width="24.4" height="24.65" shape-rendering="crispEdges"/><rect fill="#121212" x="61" y="513.9" width="1049.2" height="24.65" shape-rendering="crispEdges"/><rect fill="#121212" x="1110.2" y="513.9" width="24.4" height="24.65" shape-rendering="crispEdges"/><rect fill="#121212" x="1134.6" y="513.9" width="12.2" height="24.65" shape-rendering="crispEdges"/><rect fill="#121212" x="1146.8" y="513.9" width="24.4" height="24.65" shape-rendering="crispEdges"/><rect fill="#121212" x="0" y="538.3" width="24.4" height="24.65" shape-rendering="crispEdges"/><rect fill="#121212" x="24.4" y="538.3" width="12.2" height="24.65" shape-rendering="crispEdges"/><rect fill="#121212" x="36.6" y="538.3" width="24.4" height="24.65" shape-rendering="crispEdges"/><rect fill="#121212" x="61" y="538.3" width="1049.2" height="24.65" shape-rendering="crispEdges"/><rect fill="#121212" x="1110.2" y="538.3" width="24.4" height="24.65" shape-rendering="crispEdges"/><rect fill="#121212" x="1134.6" y="538.3" width="12.2" height="24.65" shape-rendering="crispEdges"/><rect fill="#121212" x="1146.8" y="538.3" width="24.4" height="24.65" shape-rendering="crispEdges"/><rect fill="#121212" x="0" y="562.7" width="24.4" height="24.65" shape-rendering="crispEdges"/><rect fill="#121212" x="24.4" y="562.7" width="12.2" height="24.65" shape-rendering="crispEdges"/><rect fill="#121212" x="36.6" y="562.7" width="24.4" height="24.65" shape-rendering="crispEdges"/><rect fill="#121212" x="61" y="562.7" width="1049.2" height="24.65" shape-rendering="crispEdges"/><rect fill="#121212" x="1110.2" y="562.7" width="24.4" height="24.65" shape-rendering="crispEdges"/><rect fill="#121212" x="1134.6" y="562.7" width="12.2" height="24.65" shape-rendering="crispEdges"/><rect fill="#121212" x="1146.8" y="562.7" width="24.4" height="24.65" shape-rendering="crispEdges"/><rect fill="#121212" x="0" y="587.1" width="24.4" height="24.65" shape-rendering="crispEdges"/><rect fill="#121212" x="24.4" y="587.1" width="12.2" height="24.65" shape-rendering="crispEdges"/><rect fill="#121212" x="36.6" y="587.1" width="1098" height="24.65" shape-rendering="crispEdges"/><rect fill="#121212" x="1134.6" y="587.1" width="12.2" height="24.65" shape-rendering="crispEdges"/><rect fill="#121212" x="1146.8" y="587.1" width="24.4" height="24.65" shape-rendering="crispEdges"/><rect fill="#121212" x="0" y="611.5" width="24.4" height="24.65" shape-rendering="crispEdges"/><rect fill="#121212" x="24.4" y="611.5" width="12.2" height="24.65" shape-rendering="crispEdges"/><rect fill="#121212" x="36.6" y="611.5" width="1098" height="24.65" shape-rendering="crispEdges"/><rect fill="#121212" x="1134.6" y="611.5" width="12.2" height="24.65" shape-rendering="crispEdges"/><rect fill="#121212" x="1146.8" y="611.5" width="24.4" height="24.65" shape-rendering="crispEdges"/><rect fill="#121212" x="0" y="635.9" width="1171.2" height="24.65" shape-rendering="crispEdges"/><rect fill="#242f38" x="0" y="660.3" width="36.6" height="24.65" shape-rendering="crispEdges"/><rect fill="#242f38" x="36.6" y="660.3" width="61" height="24.65" shape-rendering="crispEdges"/><rect fill="#242f38" x="97.6" y="660.3" width="36.6" height="24.65" shape-rendering="crispEdges"/><rect fill="#242f38" x="134.2" y="660.3" width="61" height="24.65" shape-rendering="crispEdges"/><rect fill="#242f38" x="195.2" y="660.3" width="36.6" height="24.65" shape-rendering="crispEdges"/><rect fill="#242f38" x="231.8" y="660.3" width="61" height="24.65" shape-rendering="crispEdges"/><rect fill="#242f38" x="292.8" y="660.3" width="36.6" height="24.65" shape-rendering="crispEdges"/><rect fill="#242f38" x="329.4" y="660.3" width="61" height="24.65" shape-rendering="crispEdges"/><rect fill="#242f38" x="390.4" y="660.3" width="36.6" height="24.65" shape-rendering="crispEdges"/><rect fill="#242f38" x="427" y="660.3" width="61" height="24.65" shape-rendering="crispEdges"/><rect fill="#242f38" x="488" y="660.3" width="36.6" height="24.65" shape-rendering="crispEdges"/><rect fill="#242f38" x="524.6" y="660.3" width="61" height="24.65" shape-rendering="crispEdges"/><rect fill="#242f38" x="585.6" y="660.3" width="36.6" height="24.65" shape-rendering="crispEdges"/><rect fill="#242f38" x="622.2" y="660.3" width="97.6" height="24.65" shape-rendering="crispEdges"/><rect fill="#242f38" x="719.8" y="660.3" width="36.6" height="24.65" shape-rendering="crispEdges"/><rect fill="#242f38" x="756.4" y="660.3" width="61" height="24.65" shape-rendering="crispEdges"/><rect fill="#242f38" x="817.4" y="660.3" width="207.4" height="24.65" shape-rendering="crispEdges"/><rect fill="#242f38" x="1024.8" y="660.3" width="12.2" height="24.65" shape-rendering="crispEdges"/><rect fill="#242f38" x="1037" y="660.3" width="24.4" height="24.65" shape-rendering="crispEdges"/><rect fill="#242f38" x="1061.4" y="660.3" width="97.6" height="24.65" shape-rendering="crispEdges"/><rect fill="#242f38" x="1159" y="660.3" width="12.2" height="24.65" shape-rendering="crispEdges"/>
    <g class="terminal-2630315761-matrix">
    <text class="terminal-2630315761-r2" x="12.2" y="20" textLength="12.2" clip-path="url(#terminal-2630315761-line-0)">⭘</text><text class="terminal-2630315761-r2" x="451.4" y="20" textLength="146.4" clip-path="url(#terminal-2630315761-line-0)">ResidualSelf</text><text class="terminal-2630315761-r3" x="597.8" y="20" textLength="36.6" clip-path="url(#terminal-2630315761-line-0)">&#160;—&#160;</text><text class="terminal-2630315761-r3" x="634.4" y="20" textLength="48.8" clip-path="url(#terminal-2630315761-line-0)">NEXT</text><text class="terminal-2630315761-r1" x="1171.2" y="20" textLength="12.2" clip-path="url(#terminal-2630315761-line-0)">
</text><text class="terminal-2630315761-r4" x="12.2" y="44.4" textLength="207.4" clip-path="url(#terminal-2630315761-line-1)">Mode:&#160;NEXT&#160;&#160;&#160;&#160;1/2</text><text class="terminal-2630315761-r1" x="1171.2" y="44.4" textLength="12.2" clip-path="url(#terminal-2630315761-line-1)">
</text><text class="terminal-2630315761-r1" x="1171.2" y="68.8" textLength="12.2" clip-path="url(#terminal-2630315761-line-2)">
</text><text class="terminal-2630315761-r5" x="24.4" y="93.2" textLength="12.2" clip-path="url(#terminal-2630315761-line-3)">╭</text><text class="terminal-2630315761-r5" x="36.6" y="93.2" textLength="1098" clip-path="url(#terminal-2630315761-line-3)">──────────────────────────────────────────────────────────────────────────────────────────</text><text class="terminal-2630315761-r5" x="1134.6" y="93.2" textLength="12.2" clip-path="url(#terminal-2630315761-line-3)">╮</text><text class="terminal-2630315761-r1" x="1171.2" y="93.2" textLength="12.2" clip-path="url(#terminal-2630315761-line-3)">
</text><text class="terminal-2630315761-r5" x="24.4" y="117.6" textLength="12.2" clip-path="url(#terminal-2630315761-line-4)">│</text><text class="terminal-2630315761-r5" x="1134.6" y="117.6" textLength="12.2" clip-path="url(#terminal-2630315761-line-4)">│</text><text class="terminal-2630315761-r1" x="1171.2" y="117.6" textLength="12.2" clip-path="url(#terminal-2630315761-line-4)">
</text><text class="terminal-2630315761-r5" x="24.4" y="142" textLength="12.2" clip-path="url(#terminal-2630315761-line-5)">│</text><text class="terminal-2630315761-r6" x="61" y="142" textLength="536.8" clip-path="url(#terminal-2630315761-line-5)">Add&#160;keyboard&#160;shortcuts&#160;to&#160;the&#160;settings&#160;panel</text><text class="terminal-2630315761-r5" x="1134.6" y="142" textLength="12.2" clip-path="url(#terminal-2630315761-line-5)">│</text><text class="terminal-2630315761-r1" x="1171.2" y="142" textLength="12.2" clip-path="url(#terminal-2630315761-line-5)">
</text><text class="terminal-2630315761-r5" x="24.4" y="166.4" textLength="12.2" clip-path="url(#terminal-2630315761-line-6)">│</text><text class="terminal-2630315761-r7" x="61" y="166.4" textLength="170.8" clip-path="url(#terminal-2630315761-line-6)">REVIEW_REQUEST</text><text class="terminal-2630315761-r8" x="244" y="166.4" textLength="244" clip-path="url(#terminal-2630315761-line-6)">·&#160;acme/web#1180&#160;·&#160;PR</text><text class="terminal-2630315761-r5" x="1134.6" y="166.4" textLength="12.2" clip-path="url(#terminal-2630315761-line-6)">│</text><text class="terminal-2630315761-r1" x="1171.2" y="166.4" textLength="12.2" clip-path="url(#terminal-2630315761-line-6)">
</text><text class="terminal-2630315761-r5" x="24.4" y="190.8" textLength="12.2" clip-path="url(#terminal-2630315761-line-7)">│</text><text class="terminal-2630315761-r5" x="1134.6" y="190.8" textLength="12.2" clip-path="url(#terminal-2630315761-line-7)">│</text><text class="terminal-2630315761-r1" x="1171.2" y="190.8" textLength="12.2" clip-path="url(#terminal-2630315761-line-7)">
</text><text class="terminal-2630315761-r5" x="24.4" y="215.2" textLength="12.2" clip-path="url(#terminal-2630315761-line-8)">│</text><text class="terminal-2630315761-r8" x="61" y="215.2" textLength="85.4" clip-path="url(#terminal-2630315761-line-8)">Author:</text><text class="terminal-2630315761-r2" x="146.4" y="215.2" textLength="48.8" clip-path="url(#terminal-2630315761-line-8)">&#160;lee</text><text class="terminal-2630315761-r5" x="1134.6" y="215.2" textLength="12.2" clip-path="url(#terminal-2630315761-line-8)">│</text><text class="terminal-2630315761-r1" x="1171.2" y="215.2" textLength="12.2" clip-path="url(#terminal-2630315761-line-8)">
</text><text class="terminal-2630315761-r5" x="24.4" y="239.6" textLength="12.2" clip-path="url(#terminal-2630315761-line-9)">│</text><text class="terminal-2630315761-r8" x="61" y="239.6" textLength="97.6" clip-path="url(#terminal-2630315761-line-9)">Waiting:</text><text class="terminal-2630315761-r2" x="158.6" y="239.6" textLength="48.8" clip-path="url(#terminal-2630315761-line-9)">&#160;lee</text><text class="terminal-2630315761-r5" x="1134.6" y="239.6" textLength="12.2" clip-path="url(#terminal-2630315761-line-9)">│</text><text class="terminal-2630315761-r1" x="1171.2" y="239.6" textLength="12.2" clip-path="url(#terminal-2630315761-line-9)">
</text><text class="terminal-2630315761-r5" x="24.4" y="264" textLength="12.2" clip-path="url(#terminal-2630315761-line-10)">│</text><text class="terminal-2630315761-r8" x="61" y="264" textLength="85.4" clip-path="url(#terminal-2630315761-line-10)">Status:</text><text class="terminal-2630315761-r2" x="146.4" y="264" textLength="61" clip-path="url(#terminal-2630315761-line-10)">&#160;open</text><text class="terminal-2630315761-r5" x="1134.6" y="264" textLength="12.2" clip-path="url(#terminal-2630315761-line-10)">│</text><text class="terminal-2630315761-r1" x="1171.2" y="264" textLength="12.2" clip-path="url(#terminal-2630315761-line-10)">
</text><text class="terminal-2630315761-r5" x="24.4" y="288.4" textLength="12.2" clip-path="url(#terminal-2630315761-line-11)">│</text><text class="terminal-2630315761-r8" x="61" y="288.4" textLength="36.6" clip-path="url(#terminal-2630315761-line-11)">CI:</text><text class="terminal-2630315761-r9" x="109.8" y="288.4" textLength="85.4" clip-path="url(#terminal-2630315761-line-11)">success</text><text class="terminal-2630315761-r5" x="1134.6" y="288.4" textLength="12.2" clip-path="url(#terminal-2630315761-line-11)">│</text><text class="terminal-2630315761-r1" x="1171.2" y="288.4" textLength="12.2" clip-path="url(#terminal-2630315761-line-11)">
</text><text class="terminal-2630315761-r5" x="24.4" y="312.8" textLength="12.2" clip-path="url(#terminal-2630315761-line-12)">│</text><text class="terminal-2630315761-r8" x="61" y="312.8" textLength="85.4" clip-path="url(#terminal-2630315761-line-12)">Reason:</text><text class="terminal-2630315761-r2" x="146.4" y="312.8" textLength="207.4" clip-path="url(#terminal-2630315761-line-12)">&#160;review_requested</text><text class="terminal-2630315761-r5" x="1134.6" y="312.8" textLength="12.2" clip-path="url(#terminal-2630315761-line-12)">│</text><text class="terminal-2630315761-r1" x="1171.2" y="312.8" textLength="12.2" clip-path="url(#terminal-2630315761-line-12)">
</text><text class="terminal-2630315761-r5" x="24.4" y="337.2" textLength="12.2" clip-path="url(#terminal-2630315761-line-13)">│</text><text class="terminal-2630315761-r5" x="1134.6" y="337.2" textLength="12.2" clip-path="url(#terminal-2630315761-line-13)">│</text><text class="terminal-2630315761-r1" x="1171.2" y="337.2" textLength="12.2" clip-path="url(#terminal-2630315761-line-13)">
</text><text class="terminal-2630315761-r5" x="24.4" y="361.6" textLength="12.2" clip-path="url(#terminal-2630315761-line-14)">│</text><text class="terminal-2630315761-r10" x="61" y="361.6" textLength="451.4" clip-path="url(#terminal-2630315761-line-14)">https://github.com/acme/web/pull/1180</text><text class="terminal-2630315761-r5" x="1134.6" y="361.6" textLength="12.2" clip-path="url(#terminal-2630315761-line-14)">│</text><text class="terminal-2630315761-r1" x="1171.2" y="361.6" textLength="12.2" clip-path="url(#terminal-2630315761-line-14)">
</text><text class="terminal-2630315761-r5" x="24.4" y="386" textLength="12.2" clip-path="url(#terminal-2630315761-line-15)">│</text><text class="terminal-2630315761-r5" x="1134.6" y="386" textLength="12.2" clip-path="url(#terminal-2630315761-line-15)">│</text><text class="terminal-2630315761-r1" x="1171.2" y="386" textLength="12.2" clip-path="url(#terminal-2630315761-line-15)">
</text><text class="terminal-2630315761-r5" x="24.4" y="410.4" textLength="12.2" clip-path="url(#terminal-2630315761-line-16)">│</text><text class="terminal-2630315761-r5" x="1134.6" y="410.4" textLength="12.2" clip-path="url(#terminal-2630315761-line-16)">│</text><text class="terminal-2630315761-r1" x="1171.2" y="410.4" textLength="12.2" clip-path="url(#terminal-2630315761-line-16)">
</text><text class="terminal-2630315761-r5" x="24.4" y="434.8" textLength="12.2" clip-path="url(#terminal-2630315761-line-17)">│</text><text class="terminal-2630315761-r5" x="1134.6" y="434.8" textLength="12.2" clip-path="url(#terminal-2630315761-line-17)">│</text><text class="terminal-2630315761-r1" x="1171.2" y="434.8" textLength="12.2" clip-path="url(#terminal-2630315761-line-17)">
</text><text class="terminal-2630315761-r5" x="24.4" y="459.2" textLength="12.2" clip-path="url(#terminal-2630315761-line-18)">│</text><text class="terminal-2630315761-r5" x="1134.6" y="459.2" textLength="12.2" clip-path="url(#terminal-2630315761-line-18)">│</text><text class="terminal-2630315761-r1" x="1171.2" y="459.2" textLength="12.2" clip-path="url(#terminal-2630315761-line-18)">
</text><text class="terminal-2630315761-r5" x="24.4" y="483.6" textLength="12.2" clip-path="url(#terminal-2630315761-line-19)">│</text><text class="terminal-2630315761-r5" x="1134.6" y="483.6" textLength="12.2" clip-path="url(#terminal-2630315761-line-19)">│</text><text class="terminal-2630315761-r1" x="1171.2" y="483.6" textLength="12.2" clip-path="url(#terminal-2630315761-line-19)">
</text><text class="terminal-2630315761-r5" x="24.4" y="508" textLength="12.2" clip-path="url(#terminal-2630315761-line-20)">│</text><text class="terminal-2630315761-r5" x="1134.6" y="508" textLength="12.2" clip-path="url(#terminal-2630315761-line-20)">│</text><text class="terminal-2630315761-r1" x="1171.2" y="508" textLength="12.2" clip-path="url(#terminal-2630315761-line-20)">
</text><text class="terminal-2630315761-r5" x="24.4" y="532.4" textLength="12.2" clip-path="url(#terminal-2630315761-line-21)">│</text><text class="terminal-2630315761-r5" x="1134.6" y="532.4" textLength="12.2" clip-path="url(#terminal-2630315761-line-21)">│</text><text class="terminal-2630315761-r1" x="1171.2" y="532.4" textLength="12.2" clip-path="url(#terminal-2630315761-line-21)">
</text><text class="terminal-2630315761-r5" x="24.4" y="556.8" textLength="12.2" clip-path="url(#terminal-2630315761-line-22)">│</text><text class="terminal-2630315761-r5" x="1134.6" y="556.8" textLength="12.2" clip-path="url(#terminal-2630315761-line-22)">│</text><text class="terminal-2630315761-r1" x="1171.2" y="556.8" textLength="12.2" clip-path="url(#terminal-2630315761-line-22)">
</text><text class="terminal-2630315761-r5" x="24.4" y="581.2" textLength="12.2" clip-path="url(#terminal-2630315761-line-23)">│</text><text class="terminal-2630315761-r5" x="1134.6" y="581.2" textLength="12.2" clip-path="url(#terminal-2630315761-line-23)">│</text><text class="terminal-2630315761-r1" x="1171.2" y="581.2" textLength="12.2" clip-path="url(#terminal-2630315761-line-23)">
</text><text class="terminal-2630315761-r5" x="24.4" y="605.6" textLength="12.2" clip-path="url(#terminal-2630315761-line-24)">│</text><text class="terminal-2630315761-r5" x="1134.6" y="605.6" textLength="12.2" clip-path="url(#terminal-2630315761-line-24)">│</text><text class="terminal-2630315761-r1" x="1171.2" y="605.6" textLength="12.2" clip-path="url(#terminal-2630315761-line-24)">
</text><text class="terminal-2630315761-r5" x="24.4" y="630" textLength="12.2" clip-path="url(#terminal-2630315761-line-25)">╰</text><text class="terminal-2630315761-r5" x="36.6" y="630" textLength="1098" clip-path="url(#terminal-2630315761-line-25)">──────────────────────────────────────────────────────────────────────────────────────────</text><text class="terminal-2630315761-r5" x="1134.6" y="630" textLength="12.2" clip-path="url(#terminal-2630315761-line-25)">╯</text><text class="terminal-2630315761-r1" x="1171.2" y="630" textLength="12.2" clip-path="url(#terminal-2630315761-line-25)">
</text><text class="terminal-2630315761-r1" x="1171.2" y="654.4" textLength="12.2" clip-path="url(#terminal-2630315761-line-26)">
</text><text class="terminal-2630315761-r11" x="0" y="678.8" textLength="36.6" clip-path="url(#terminal-2630315761-line-27)">&#160;n&#160;</text><text class="terminal-2630315761-r2" x="36.6" y="678.8" textLength="61" clip-path="url(#terminal-2630315761-line-27)">Next&#160;</text><text class="terminal-2630315761-r11" x="97.6" y="678.8" textLength="36.6" clip-path="url(#terminal-2630315761-line-27)">&#160;b&#160;</text><text class="terminal-2630315761-r2" x="134.2" y="678.8" textLength="61" clip-path="url(#terminal-2630315761-line-27)">Prev&#160;</text><text class="terminal-2630315761-r11" x="195.2" y="678.8" textLength="36.6" clip-path="url(#terminal-2630315761-line-27)">&#160;o&#160;</text><text class="terminal-2630315761-r2" x="231.8" y="678.8" textLength="61" clip-path="url(#terminal-2630315761-line-27)">Open&#160;</text><text class="terminal-2630315761-r11" x="292.8" y="678.8" textLength="36.6" clip-path="url(#terminal-2630315761-line-27)">&#160;p&#160;</text><text class="terminal-2630315761-r2" x="329.4" y="678.8" textLength="61" clip-path="url(#terminal-2630315761-line-27)">Park&#160;</text><text class="terminal-2630315761-r11" x="390.4" y="678.8" textLength="36.6" clip-path="url(#terminal-2630315761-line-27)">&#160;d&#160;</text><text class="terminal-2630315761-r2" x="427" y="678.8" textLength="61" clip-path="url(#terminal-2630315761-line-27)">Done&#160;</text><text class="terminal-2630315761-r11" x="488" y="678.8" textLength="36.6" clip-path="url(#terminal-2630315761-line-27)">&#160;m&#160;</text><text class="terminal-2630315761-r2" x="524.6" y="678.8" textLength="61" clip-path="url(#terminal-2630315761-line-27)">Mode&#160;</text><text class="terminal-2630315761-r11" x="585.6" y="678.8" textLength="36.6" clip-path="url(#terminal-2630315761-line-27)">&#160;s&#160;</text><text class="terminal-2630315761-r2" x="622.2" y="678.8" textLength="97.6" clip-path="url(#terminal-2630315761-line-27)">Session&#160;</text><text class="terminal-2630315761-r11" x="719.8" y="678.8" textLength="36.6" clip-path="url(#terminal-2630315761-line-27)">&#160;q&#160;</text><text class="terminal-2630315761-r2" x="756.4" y="678.8" textLength="61" clip-path="url(#terminal-2630315761-line-27)">Quit&#160;</text><text class="terminal-2630315761-r12" x="1024.8" y="678.8" textLength="12.2" clip-path="url(#terminal-2630315761-line-27)">▏</text><text class="terminal-2630315761-r11" x="1037" y="678.8" textLength="24.4" clip-path="url(#terminal-2630315761-line-27)">^p</text><text class="terminal-2630315761-r2" x="1061.4" y="678.8" textLength="97.6" clip-path="url(#terminal-2630315761-line-27)">&#160;palette</text>
    </g>
    </g>
</svg>
